<svg xmlns="http://www.w3.org/2000/svg" viewBox="0 0 200 48" fill="none" role="img" aria-label="SINEXIA">
  <rect width="48" height="48" rx="10" fill="#1A3354"/>
  <path d="M14 30.5c0-5.2 3.4-7.8 8.2-9.4 3.2-1.1 4.8-1.9 4.8-3.6 0-1.7-1.5-2.8-3.7-2.8-2.4 0-4 1.2-4.4 3.1l-5.2-1.1C14.5 12.4 18.2 9 24.4 9c6.1 0 10.2 3.3 10.2 8.2 0 4.4-2.9 6.8-8.1 8.5-3.4 1.1-5.1 2.1-5.1 4.1 0 1.8 1.6 2.9 4.1 2.9 2.8 0 4.7-1.4 5.2-3.6l5.3 1.1c-.9 4.6-4.9 7.8-10.6 7.8-6.4 0-10.5-3.4-10.5-8.5z" fill="#FFFFFF"/>
  <text x="60" y="32" fill="#1A3354" font-family="Georgia, 'Times New Roman', serif" font-size="22" font-weight="700" letter-spacing="0.12em">SINEXIA</text>
</svg>
